<?xml version="1.0" encoding="UTF-8" standalone="no"?>
<!DOCTYPE svg PUBLIC "-//W3C//DTD SVG 1.1//EN" "http://www.w3.org/Graphics/SVG/1.1/DTD/svg11.dtd">
<svg width="100%" height="100%" viewBox="0 0 300 274" version="1.1" xmlns="http://www.w3.org/2000/svg" xmlns:xlink="http://www.w3.org/1999/xlink" xml:space="preserve" xmlns:serif="http://www.serif.com/" style="fill-rule:evenodd;clip-rule:evenodd;stroke-linejoin:round;stroke-miterlimit:2;">
    <g transform="matrix(1,0,0,1,-876.649369,-177.213173)">
        <g id="Logo-Merged" serif:id="Logo Merged" transform="matrix(0.378637,0,0,0.378637,662.826406,109.347238)">
            <path d="M1156.639,537.489C1148.592,553.046 1002.794,818.744 999.299,824.954C998.523,826.333 997.834,827.183 997.155,827.606C993.291,822.918 988.616,818.924 983.344,815.839C984.223,812.393 993.87,794.778 1079.351,638.585C1121.28,562.106 1127.419,551.339 1131.709,543.815C1136.084,536.142 1138.123,531.367 1139.968,529.077C1144.906,532.827 1150.539,535.708 1156.639,537.489ZM775.546,529.217C777.363,531.559 779.408,536.295 783.695,543.815C787.985,551.339 794.124,562.106 836.053,638.585C919.219,790.547 930.603,811.337 931.968,815.526C926.585,818.588 921.806,822.592 917.856,827.314C917.302,826.837 916.732,826.068 916.105,824.954C912.615,818.753 767.265,553.872 758.804,537.564C764.926,535.81 770.584,532.951 775.546,529.217ZM1300.873,269.255C1291.838,286.576 1217.251,424.802 1203.433,447.946C1198.627,444.063 1193.11,441.025 1187.11,439.06C1188.781,435.042 1193.972,426.569 1213.308,390.588C1275.663,274.561 1278.888,270.367 1283.987,260.898C1288.99,264.651 1294.697,267.515 1300.873,269.255ZM633.355,262.765C633.818,263.546 634.459,264.698 635.386,266.465C637.646,270.773 714.465,412.85 720.474,424.353C724.398,431.864 727.004,436.31 728.205,439.188C722.072,441.25 716.453,444.436 711.593,448.5C710.325,446.677 709.286,444.696 709.104,444.349C671.345,372.394 629.804,297.692 615.965,270.039C622.264,268.69 628.139,266.188 633.355,262.765ZM1082.135,353.356L1079.284,358.562C1072.169,371.674 1002.153,500.699 989.801,522.498C986.335,519.763 982.509,517.463 978.406,515.682C984.471,503.693 1017.299,444.236 1024.462,430.859C1027.806,424.614 1061.045,362.54 1069.999,347.918C1070.85,348.454 1071.723,348.967 1072.619,349.455C1075.703,351.134 1078.893,352.429 1082.135,353.356ZM964.707,614.032C964.802,620.287 964.726,630.14 964.726,645.756C964.726,760.836 964.781,797.308 964.716,809.265C962.494,808.972 960.229,808.821 957.928,808.821C955.8,808.821 953.702,808.95 951.642,809.201C951.194,800.092 951.252,781.518 951.236,743.634L951.3,621.856C951.303,618.964 951.201,616.346 951.142,614.031C953.363,614.324 955.628,614.475 957.928,614.475C960.225,614.475 962.488,614.324 964.707,614.032ZM845.427,347.711C850.258,355.224 859.727,373.742 865.669,384.114C870.996,393.41 928.929,499.087 937.731,515.56C933.835,517.224 930.185,519.355 926.852,521.881C924.02,517.641 917.925,507.226 903.878,481.671C885.644,448.377 840.755,367.133 833.854,353.065C837.982,351.807 841.869,349.994 845.427,347.711ZM1136.359,286.673C1143.491,283.053 1163.797,275.445 1218.992,253.109C1234.088,247.03 1257.861,237.624 1265.541,234.593C1267.13,239.842 1269.535,244.737 1272.607,249.132C1258.196,255.563 1153.585,295.718 1141.039,300.503C1140.209,295.685 1138.631,291.014 1136.359,286.673ZM774.217,300.059C769.961,298.777 762.035,295.426 746.268,289.234C712.183,275.64 661.734,255.106 655.162,252.575C651.918,251.326 649.156,250.513 646.939,249.772C650.021,245.503 652.465,240.743 654.132,235.634L654.449,235.76C663.589,239.378 770.797,282.825 777.773,285.737C778.215,285.922 778.627,286.104 779.01,286.285C776.734,290.528 775.094,295.162 774.217,300.059ZM1124.26,509.518C1124.052,509.647 1123.826,509.762 1123.58,509.861C1118.698,511.827 1118.713,511.733 1062.318,533.823C1058.273,535.395 1017.801,551.126 1008.735,554.407C1007.942,549.666 1006.499,545.143 1004.503,540.933C1004.62,540.88 1004.741,540.829 1004.865,540.78C1013.956,537.192 1112.703,498.227 1120.261,496.47C1121.017,501.051 1122.379,505.429 1124.26,509.518ZM907.045,554.873C902.338,553.538 856.365,535.511 852.061,533.823C812.687,518.393 797.002,512.821 791.422,509.557C793.238,505.617 794.572,501.408 795.347,497.008C795.574,497.056 795.81,497.115 796.056,497.185C799.736,498.224 901.669,537.829 911.028,541.632C909.136,545.781 907.779,550.224 907.045,554.873ZM1119.692,348.074C1119.837,348.392 1119.98,348.735 1120.124,349.102C1122.932,356.277 1138.586,396.275 1154.084,439.227L1154.139,439.373C1149.669,440.932 1145.479,443.09 1141.665,445.75C1138.225,439.457 1132.21,421.336 1114.566,375.298C1110.445,364.512 1107.685,357.754 1106.573,353.672C1111.188,352.489 1115.618,350.605 1119.692,348.074ZM808.899,353.699C806.129,361.543 794.724,392.474 781.562,426.526C777.614,436.839 775.659,442.749 774.142,445.825C770.304,443.134 766.084,440.952 761.579,439.379C766.029,427.274 791.158,360.219 796.225,348.449C800.118,350.785 804.379,352.571 808.899,353.699ZM605.144,179.237C627.456,179.237 645.57,197.352 645.57,219.664C645.57,241.976 627.456,260.09 605.144,260.09C582.832,260.09 564.717,241.976 564.717,219.664C564.717,197.352 582.832,179.237 605.144,179.237ZM744.612,447.605C766.924,447.605 785.039,465.719 785.039,488.031C785.039,510.343 766.924,528.457 744.612,528.457C722.3,528.457 704.186,510.343 704.186,488.031C704.186,465.719 722.3,447.605 744.612,447.605ZM820.231,273.075C839.693,273.075 855.494,288.875 855.494,308.337C855.494,327.799 839.693,343.6 820.231,343.6C800.77,343.6 784.969,327.799 784.969,308.337C784.969,288.875 800.77,273.075 820.231,273.075ZM820.231,289.744C809.969,289.744 801.638,298.075 801.638,308.337C801.638,318.599 809.969,326.931 820.231,326.931C830.493,326.931 838.825,318.599 838.825,308.337C838.825,298.075 830.493,289.744 820.231,289.744ZM1094.97,273.075C1114.432,273.075 1130.233,288.875 1130.233,308.337C1130.233,327.799 1114.432,343.6 1094.97,343.6C1075.509,343.6 1059.708,327.799 1059.708,308.337C1059.708,288.875 1075.509,273.075 1094.97,273.075ZM1094.97,289.744C1084.709,289.744 1076.377,298.075 1076.377,308.337C1076.377,318.599 1084.709,326.931 1094.97,326.931C1105.232,326.931 1113.564,318.599 1113.564,308.337C1113.564,298.075 1105.232,289.744 1094.97,289.744ZM1171.087,447.605C1193.399,447.605 1211.514,465.719 1211.514,488.031C1211.514,510.343 1193.399,528.457 1171.087,528.457C1148.775,528.457 1130.661,510.343 1130.661,488.031C1130.661,465.719 1148.775,447.605 1171.087,447.605ZM957.928,819.91C980.24,819.91 998.354,838.024 998.354,860.336C998.354,882.648 980.24,900.763 957.928,900.763C935.616,900.763 917.501,882.648 917.501,860.336C917.501,838.024 935.616,819.91 957.928,819.91ZM957.928,522.533C980.24,522.533 998.354,540.648 998.354,562.96C998.354,585.272 980.24,603.386 957.928,603.386C935.616,603.386 917.501,585.272 917.501,562.96C917.501,540.648 935.616,522.533 957.928,522.533ZM1314.856,179.237C1337.168,179.237 1355.283,197.352 1355.283,219.664C1355.283,241.976 1337.168,260.09 1314.856,260.09C1292.544,260.09 1274.43,241.976 1274.43,219.664C1274.43,197.352 1292.544,179.237 1314.856,179.237Z" style="fill:url(#_Linear1);"/>
        </g>
    </g>
    <defs>
        <linearGradient id="_Linear1" x1="0" y1="0" x2="1" y2="0" gradientUnits="userSpaceOnUse" gradientTransform="matrix(790.565123,0,0,721.525153,564.717438,540)"><stop offset="0" style="stop-color:rgb(21,97,245);stop-opacity:1"/><stop offset="0.25" style="stop-color:rgb(20,102,243);stop-opacity:1"/><stop offset="0.45" style="stop-color:rgb(18,121,237);stop-opacity:1"/><stop offset="0.55" style="stop-color:rgb(12,160,225);stop-opacity:1"/><stop offset="0.66" style="stop-color:rgb(7,196,214);stop-opacity:1"/><stop offset="1" style="stop-color:rgb(5,211,209);stop-opacity:1"/></linearGradient>
    </defs>
</svg>
